<?xml version="1.0" encoding="utf-8"?>
<!-- Generator: Adobe Illustrator 22.1.0, SVG Export Plug-In . SVG Version: 6.00 Build 0)  -->
<svg version="1.1" xmlns="http://www.w3.org/2000/svg" xmlns:xlink="http://www.w3.org/1999/xlink" x="0px" y="0px"
	 viewBox="0 0 512 512" style="enable-background:new 0 0 512 512;" xml:space="preserve">
<style type="text/css">
	.st0{fill:#F2849E;}
	.st1{fill:#585858;}
</style>
<g id="Layer_1">
	<g>
		<path class="st0" d="M512,116.3c0-50.2-40.5-90.7-90.7-90.7c-31.9,0-60.4,16.5-76.4,42.2C317,59.3,287.4,54.2,256,54.2
			s-61.6,4.6-88.9,13.7c-16-25.1-44.5-42.2-76.4-42.2C40.5,25.7,0,66.1,0,116.3c0,23.9,9.1,45.6,24.5,61.6
			C8.6,205.8,0,237.2,0,270.3c0,127.1,105.5,216.1,256,216.1s256-88.9,256-216.1c0-33.1-8.6-64.4-24.5-92.4
			C502.9,161.9,512,140.3,512,116.3z M421.3,47.3c38.2,0,69,30.8,69,69c0,16-5.7,30.8-14.8,42.8c-3.4-5.1-7.4-10.3-11.4-14.8
			c5.1-8,8.6-17.7,8.6-27.9c0-27.9-22.8-50.7-50.7-50.7c-15.4,0-28.5,6.8-38.2,17.1c-5.7-2.9-11.4-5.1-17.1-8
			C378.6,58.2,398.5,47.3,421.3,47.3z M448.1,127.7c-13.1-12.5-28.5-23.9-45-34.2c5.1-4,11.4-6.3,18.2-6.3c16,0,29.1,13.1,29.1,29.1
			C450.4,120.3,449.9,124.3,448.1,127.7z M21.7,116.3c0-38.2,30.8-69,69-69c22.8,0,42.8,10.8,55.3,27.9c-5.7,2.3-11.4,5.1-17.1,8
			c-9.1-10.8-22.8-17.1-38.2-17.1c-27.9,0-50.7,22.8-50.7,50.7c0,10.3,2.9,20,8.6,27.9c-4,4.6-8,9.7-11.4,14.8
			C27.4,147.1,21.7,132.3,21.7,116.3z M63.9,127.7c-1.7-3.4-2.3-7.4-2.3-11.4c0-16,13.1-29.1,29.1-29.1c6.8,0,13.1,2.3,18.2,6.3
			C92.4,103.8,77,115.2,63.9,127.7z M256,464.7c-138,0-234.3-79.8-234.3-194.4C21.7,163.1,126.6,75.8,256,75.8
			s234.3,87.2,234.3,194.4C490.3,384.9,394,464.7,256,464.7z"/>
		<path class="st0" d="M210.4,187l-6.8,41.6c-0.6,4,1.1,8,4.6,10.8c3.4,2.3,8,2.9,11.4,0.6l37.1-19.4l37.1,19.4
			c1.7,0.6,3.4,1.1,5.1,1.1c2.3,0,4.6-0.6,6.3-2.3c3.4-2.3,5.1-6.3,4.6-10.8l-8-41.1l30.2-29.6c2.9-2.9,4-7.4,2.9-10.8
			c-1.1-4-4.6-6.8-8.6-7.4l-41.6-5.7l-18.8-37.6c-1.7-3.4-5.7-6.3-9.7-6.3c-4,0-8,2.3-9.7,6.3l-18.8,37.6l-41.6,5.7
			c-4,0.6-7.4,3.4-8.6,7.4c-1.1,4,0,8,2.9,10.8L210.4,187z"/>
		<path class="st0" d="M130.6,278.8c-3.4,0-6.3,1.7-8.6,4c-4.6,1.7-17.7,5.1-25.7,5.1s-21.7-3.4-25.7-5.1c-1.7-2.3-5.1-4-8.6-4
			c-5.7,0-10.8,5.1-10.8,10.8c0,18.2,44.5,20,45,20s45-1.7,45-20C141.4,283.9,136.3,278.8,130.6,278.8z"/>
		<path class="st0" d="M390,282.8c-1.7-2.3-5.1-4-8.6-4c-5.7,0-10.8,5.1-10.8,10.8c0,18.2,44.5,20,45,20s45-1.7,45-20
			c0-5.7-5.1-10.8-10.8-10.8c-3.4,0-6.3,1.7-8.6,4c-4.6,1.7-17.7,5.1-25.7,5.1S394,284.5,390,282.8z"/>
		<path class="st0" d="M335.3,362.6c-1.1-23.9-13.7-45-31.9-58.7c0,0,0,0-0.6,0l-0.6-0.6c-1.1-1.1-2.3-1.7-3.4-2.3
			c-0.6-0.6-1.7-1.1-2.3-1.1c-1.1-0.6-2.3-1.1-3.4-2.3c-1.1-0.6-2.3-1.1-3.4-1.7c-1.1-0.6-2.3-1.1-3.4-1.7c-1.7-0.6-4-1.7-6.3-2.3
			c-0.6,0-1.7-0.6-2.3-0.6c-1.7-0.6-3.4-1.1-4.6-1.1c-0.6,0-1.7-0.6-2.3-0.6c-1.7-0.6-3.4-0.6-5.1-0.6c-0.6,0-1.7,0-2.3,0
			c-2.3,0-5.1-0.6-7.4-0.6s-5.1,0-7.4,0.6c-0.6,0-1.7,0-2.3,0c-1.7,0-3.4,0.6-5.1,0.6c-0.6,0-1.7,0.6-2.3,0.6
			c-1.7,0.6-3.4,0.6-4.6,1.1c-0.6,0-1.7,0.6-2.3,0.6c-2.3,0.6-4,1.1-6.3,2.3c-1.1,0.6-2.3,1.1-2.9,1.1c-1.1,0.6-2.3,1.1-3.4,1.7
			c-1.1,0.6-2.3,1.1-3.4,2.3c-0.6,0.6-1.7,1.1-2.3,1.1c-1.1,0.6-2.3,1.7-3.4,2.3l-0.6,0.6c0,0,0,0-0.6,0.6
			c-18.2,13.7-30.2,34.8-31.9,58.7c0,0.6,0,1.7,0,2.3c0,0.6,0,1.1,0,1.1c0,0.6,0,0.6,0,1.1c0,43.9,35.3,79.3,79.3,79.3
			s78.7-35.3,78.7-79.3c0-0.6,0-0.6,0-1.1s0-1.1,0-1.1C335.3,363.8,335.3,363.2,335.3,362.6z M215.5,326.1l33.6,26.8
			c1.7,1.7,4.6,2.3,6.8,2.3c2.3,0,4.6-0.6,6.8-2.3l33.6-26.8c9.1,9.1,15.4,21.1,17.1,34.8c-16.5,8-36.5,12.5-57,12.5
			s-40.5-4.6-57-12.5C200.1,347.2,206.4,335.3,215.5,326.1z M256,424.8c-25.7,0-46.8-16.5-54.7-39.3c16.5,6.3,35.3,9.7,54.7,9.7
			c18.8,0,37.6-3.4,54.7-9.7C302.8,408.2,281.7,424.8,256,424.8z"/>
	</g>
	<g>
		<path class="st0" d="M512,116.3c0-50.2-40.5-90.7-90.7-90.7c-31.9,0-60.4,16.5-76.4,42.2C317,59.3,287.4,54.2,256,54.2
			s-61.6,4.6-88.9,13.7c-16-25.1-44.5-42.2-76.4-42.2C40.5,25.7,0,66.1,0,116.3c0,23.9,9.1,45.6,24.5,61.6
			C8.6,205.8,0,237.2,0,270.3c0,127.1,105.5,216.1,256,216.1s256-88.9,256-216.1c0-33.1-8.6-64.4-24.5-92.4
			C502.9,161.9,512,140.3,512,116.3z"/>
		<path class="st0" d="M210.4,187l-6.8,41.6c-0.6,4,1.1,8,4.6,10.8c3.4,2.3,8,2.9,11.4,0.6l37.1-19.4l37.1,19.4
			c1.7,0.6,3.4,1.1,5.1,1.1c2.3,0,4.6-0.6,6.3-2.3c3.4-2.3,5.1-6.3,4.6-10.8l-8-41.1l30.2-29.6c2.9-2.9,4-7.4,2.9-10.8
			c-1.1-4-4.6-6.8-8.6-7.4l-41.6-5.7l-18.8-37.6c-1.7-3.4-5.7-6.3-9.7-6.3c-4,0-8,2.3-9.7,6.3l-18.8,37.6l-41.6,5.7
			c-4,0.6-7.4,3.4-8.6,7.4c-1.1,4,0,8,2.9,10.8L210.4,187z"/>
		<path class="st0" d="M130.6,278.8c-3.4,0-6.3,1.7-8.6,4c-4.6,1.7-17.7,5.1-25.7,5.1s-21.7-3.4-25.7-5.1c-1.7-2.3-5.1-4-8.6-4
			c-5.7,0-10.8,5.1-10.8,10.8c0,18.2,44.5,20,45,20s45-1.7,45-20C141.4,283.9,136.3,278.8,130.6,278.8z"/>
		<path class="st0" d="M390,282.8c-1.7-2.3-5.1-4-8.6-4c-5.7,0-10.8,5.1-10.8,10.8c0,18.2,44.5,20,45,20s45-1.7,45-20
			c0-5.7-5.1-10.8-10.8-10.8c-3.4,0-6.3,1.7-8.6,4c-4.6,1.7-17.7,5.1-25.7,5.1S394,284.5,390,282.8z"/>
		<path class="st0" d="M335.3,362.6c-1.1-23.9-13.7-45-31.9-58.7c0,0,0,0-0.6,0l-0.6-0.6c-1.1-1.1-2.3-1.7-3.4-2.3
			c-0.6-0.6-1.7-1.1-2.3-1.1c-1.1-0.6-2.3-1.1-3.4-2.3c-1.1-0.6-2.3-1.1-3.4-1.7c-1.1-0.6-2.3-1.1-3.4-1.7c-1.7-0.6-4-1.7-6.3-2.3
			c-0.6,0-1.7-0.6-2.3-0.6c-1.7-0.6-3.4-1.1-4.6-1.1c-0.6,0-1.7-0.6-2.3-0.6c-1.7-0.6-3.4-0.6-5.1-0.6c-0.6,0-1.7,0-2.3,0
			c-2.3,0-5.1-0.6-7.4-0.6s-5.1,0-7.4,0.6c-0.6,0-1.7,0-2.3,0c-1.7,0-3.4,0.6-5.1,0.6c-0.6,0-1.7,0.6-2.3,0.6
			c-1.7,0.6-3.4,0.6-4.6,1.1c-0.6,0-1.7,0.6-2.3,0.6c-2.3,0.6-4,1.1-6.3,2.3c-1.1,0.6-2.3,1.1-2.9,1.1c-1.1,0.6-2.3,1.1-3.4,1.7
			c-1.1,0.6-2.3,1.1-3.4,2.3c-0.6,0.6-1.7,1.1-2.3,1.1c-1.1,0.6-2.3,1.7-3.4,2.3l-0.6,0.6c0,0,0,0-0.6,0.6
			c-18.2,13.7-30.2,34.8-31.9,58.7c0,0.6,0,1.7,0,2.3c0,0.6,0,1.1,0,1.1c0,0.6,0,0.6,0,1.1c0,43.9,35.3,79.3,79.3,79.3
			s78.7-35.3,78.7-79.3c0-0.6,0-0.6,0-1.1s0-1.1,0-1.1C335.3,363.8,335.3,363.2,335.3,362.6z M215.5,326.1l33.6,26.8
			c1.7,1.7,4.6,2.3,6.8,2.3c2.3,0,4.6-0.6,6.8-2.3l33.6-26.8c9.1,9.1,15.4,21.1,17.1,34.8c-16.5,8-36.5,12.5-57,12.5
			s-40.5-4.6-57-12.5C200.1,347.2,206.4,335.3,215.5,326.1z M256,424.8c-25.7,0-46.8-16.5-54.7-39.3c16.5,6.3,35.3,9.7,54.7,9.7
			c18.8,0,37.6-3.4,54.7-9.7C302.8,408.2,281.7,424.8,256,424.8z"/>
	</g>
</g>
<g id="Layer_2">
	<g>
		<path class="st1" d="M512,116.3c0-50.2-40.5-90.7-90.7-90.7c-31.9,0-60.4,16.5-76.4,42.2C317,59.3,287.4,54.2,256,54.2
			s-61.6,4.6-88.9,13.7c-16-25.1-44.5-42.2-76.4-42.2C40.5,25.7,0,66.1,0,116.3c0,23.9,9.1,45.6,24.5,61.6
			C8.6,205.8,0,237.2,0,270.3c0,127.1,105.5,216.1,256,216.1s256-88.9,256-216.1c0-33.1-8.6-64.4-24.5-92.4
			C502.9,161.9,512,140.3,512,116.3z M421.3,47.3c38.2,0,69,30.8,69,69c0,16-5.7,30.8-14.8,42.8c-3.4-5.1-7.4-10.3-11.4-14.8
			c5.1-8,8.6-17.7,8.6-27.9c0-27.9-22.8-50.7-50.7-50.7c-15.4,0-28.5,6.8-38.2,17.1c-5.7-2.9-11.4-5.1-17.1-8
			C378.6,58.2,398.5,47.3,421.3,47.3z M448.1,127.7c-13.1-12.5-28.5-23.9-45-34.2c5.1-4,11.4-6.3,18.2-6.3c16,0,29.1,13.1,29.1,29.1
			C450.4,120.3,449.9,124.3,448.1,127.7z M21.7,116.3c0-38.2,30.8-69,69-69c22.8,0,42.8,10.8,55.3,27.9c-5.7,2.3-11.4,5.1-17.1,8
			c-9.1-10.8-22.8-17.1-38.2-17.1c-27.9,0-50.7,22.8-50.7,50.7c0,10.3,2.9,20,8.6,27.9c-4,4.6-8,9.7-11.4,14.8
			C27.4,147.1,21.7,132.3,21.7,116.3z M63.9,127.7c-1.7-3.4-2.3-7.4-2.3-11.4c0-16,13.1-29.1,29.1-29.1c6.8,0,13.1,2.3,18.2,6.3
			C92.4,103.8,77,115.2,63.9,127.7z M256,464.7c-138,0-234.3-79.8-234.3-194.4C21.7,163.1,126.6,75.8,256,75.8
			s234.3,87.2,234.3,194.4C490.3,384.9,394,464.7,256,464.7z"/>
		<path class="st1" d="M210.4,187l-6.8,41.6c-0.6,4,1.1,8,4.6,10.8c3.4,2.3,8,2.9,11.4,0.6l37.1-19.4l37.1,19.4
			c1.7,0.6,3.4,1.1,5.1,1.1c2.3,0,4.6-0.6,6.3-2.3c3.4-2.3,5.1-6.3,4.6-10.8l-8-41.1l30.2-29.6c2.9-2.9,4-7.4,2.9-10.8
			c-1.1-4-4.6-6.8-8.6-7.4l-41.6-5.7l-18.8-37.6c-1.7-3.4-5.7-6.3-9.7-6.3c-4,0-8,2.3-9.7,6.3l-18.8,37.6l-41.6,5.7
			c-4,0.6-7.4,3.4-8.6,7.4c-1.1,4,0,8,2.9,10.8L210.4,187z"/>
		<path class="st1" d="M130.6,278.8c-3.4,0-6.3,1.7-8.6,4c-4.6,1.7-17.7,5.1-25.7,5.1s-21.7-3.4-25.7-5.1c-1.7-2.3-5.1-4-8.6-4
			c-5.7,0-10.8,5.1-10.8,10.8c0,18.2,44.5,20,45,20s45-1.7,45-20C141.4,283.9,136.3,278.8,130.6,278.8z"/>
		<path class="st1" d="M390,282.8c-1.7-2.3-5.1-4-8.6-4c-5.7,0-10.8,5.1-10.8,10.8c0,18.2,44.5,20,45,20s45-1.7,45-20
			c0-5.7-5.1-10.8-10.8-10.8c-3.4,0-6.3,1.7-8.6,4c-4.6,1.7-17.7,5.1-25.7,5.1S394,284.5,390,282.8z"/>
		<path class="st1" d="M335.3,362.6c-1.1-23.9-13.7-45-31.9-58.7c0,0,0,0-0.6,0l-0.6-0.6c-1.1-1.1-2.3-1.7-3.4-2.3
			c-0.6-0.6-1.7-1.1-2.3-1.1c-1.1-0.6-2.3-1.1-3.4-2.3c-1.1-0.6-2.3-1.1-3.4-1.7c-1.1-0.6-2.3-1.1-3.4-1.7c-1.7-0.6-4-1.7-6.3-2.3
			c-0.6,0-1.7-0.6-2.3-0.6c-1.7-0.6-3.4-1.1-4.6-1.1c-0.6,0-1.7-0.6-2.3-0.6c-1.7-0.6-3.4-0.6-5.1-0.6c-0.6,0-1.7,0-2.3,0
			c-2.3,0-5.1-0.6-7.4-0.6s-5.1,0-7.4,0.6c-0.6,0-1.7,0-2.3,0c-1.7,0-3.4,0.6-5.1,0.6c-0.6,0-1.7,0.6-2.3,0.6
			c-1.7,0.6-3.4,0.6-4.6,1.1c-0.6,0-1.7,0.6-2.3,0.6c-2.3,0.6-4,1.1-6.3,2.3c-1.1,0.6-2.3,1.1-2.9,1.1c-1.1,0.6-2.3,1.1-3.4,1.7
			c-1.1,0.6-2.3,1.1-3.4,2.3c-0.6,0.6-1.7,1.1-2.3,1.1c-1.1,0.6-2.3,1.7-3.4,2.3l-0.6,0.6c0,0,0,0-0.6,0.6
			c-18.2,13.7-30.2,34.8-31.9,58.7c0,0.6,0,1.7,0,2.3c0,0.6,0,1.1,0,1.1c0,0.6,0,0.6,0,1.1c0,43.9,35.3,79.3,79.3,79.3
			s78.7-35.3,78.7-79.3c0-0.6,0-0.6,0-1.1s0-1.1,0-1.1C335.3,363.8,335.3,363.2,335.3,362.6z M215.5,326.1l33.6,26.8
			c1.7,1.7,4.6,2.3,6.8,2.3c2.3,0,4.6-0.6,6.8-2.3l33.6-26.8c9.1,9.1,15.4,21.1,17.1,34.8c-16.5,8-36.5,12.5-57,12.5
			s-40.5-4.6-57-12.5C200.1,347.2,206.4,335.3,215.5,326.1z M256,424.8c-25.7,0-46.8-16.5-54.7-39.3c16.5,6.3,35.3,9.7,54.7,9.7
			c18.8,0,37.6-3.4,54.7-9.7C302.8,408.2,281.7,424.8,256,424.8z"/>
	</g>
</g>
</svg>
