<?xml version="1.0" encoding="utf-8"?>
<!-- Generator: Adobe Illustrator 22.1.0, SVG Export Plug-In . SVG Version: 6.00 Build 0)  -->
<svg version="1.1" id="Layer_1" xmlns="http://www.w3.org/2000/svg" xmlns:xlink="http://www.w3.org/1999/xlink" x="0px" y="0px"
	 viewBox="0 0 100 100" style="enable-background:new 0 0 100 100;" xml:space="preserve">
<style type="text/css">
	.st0{fill:#585858;}
</style>
<g>
	<path class="st0" d="M94.9,26c0-8.8-7.1-15.9-15.9-15.9c-5.6,0-10.6,2.9-13.4,7.4c-4.9-1.5-10.1-2.4-15.6-2.4s-10.8,0.8-15.6,2.4
		c-2.8-4.4-7.8-7.4-13.4-7.4c-8.8,0-15.9,7.1-15.9,15.9c0,4.2,1.6,8,4.3,10.8C6.6,41.7,5.1,47.2,5.1,53c0,22.3,18.5,37.9,44.9,37.9
		S94.9,75.3,94.9,53c0-5.8-1.5-11.3-4.3-16.2C93.3,34,94.9,30.2,94.9,26z M79,13.9c6.7,0,12.1,5.4,12.1,12.1c0,2.8-1,5.4-2.6,7.5
		c-0.6-0.9-1.3-1.8-2-2.6c0.9-1.4,1.5-3.1,1.5-4.9c0-4.9-4-8.9-8.9-8.9c-2.7,0-5,1.2-6.7,3c-1-0.5-2-0.9-3-1.4
		C71.5,15.8,75,13.9,79,13.9z M83.7,28c-2.3-2.2-5-4.2-7.9-6c0.9-0.7,2-1.1,3.2-1.1c2.8,0,5.1,2.3,5.1,5.1
		C84.1,26.7,84,27.4,83.7,28z M8.9,26c0-6.7,5.4-12.1,12.1-12.1c4,0,7.5,1.9,9.7,4.9c-1,0.4-2,0.9-3,1.4c-1.6-1.9-4-3-6.7-3
		c-4.9,0-8.9,4-8.9,8.9c0,1.8,0.5,3.5,1.5,4.9c-0.7,0.8-1.4,1.7-2,2.6C9.9,31.4,8.9,28.8,8.9,26z M16.3,28c-0.3-0.6-0.4-1.3-0.4-2
		c0-2.8,2.3-5.1,5.1-5.1c1.2,0,2.3,0.4,3.2,1.1C21.3,23.8,18.6,25.8,16.3,28z M50,87.1c-24.2,0-41.1-14-41.1-34.1
		c0-18.8,18.4-34.1,41.1-34.1S91.1,34.2,91.1,53C91.1,73.1,74.2,87.1,50,87.1z"/>
	<path class="st0" d="M42,38.4l-1.2,7.3c-0.1,0.7,0.2,1.4,0.8,1.9c0.6,0.4,1.4,0.5,2,0.1l6.5-3.4l6.5,3.4c0.3,0.1,0.6,0.2,0.9,0.2
		c0.4,0,0.8-0.1,1.1-0.4c0.6-0.4,0.9-1.1,0.8-1.9L58,38.4l5.3-5.2c0.5-0.5,0.7-1.3,0.5-1.9c-0.2-0.7-0.8-1.2-1.5-1.3L55,29l-3.3-6.6
		c-0.3-0.6-1-1.1-1.7-1.1s-1.4,0.4-1.7,1.1L45,29L37.7,30c-0.7,0.1-1.3,0.6-1.5,1.3c-0.2,0.7,0,1.4,0.5,1.9L42,38.4z"/>
	<path class="st0" d="M28,54.5c-0.6,0-1.1,0.3-1.5,0.7c-0.8,0.3-3.1,0.9-4.5,0.9s-3.8-0.6-4.5-0.9c-0.3-0.4-0.9-0.7-1.5-0.7
		c-1,0-1.9,0.9-1.9,1.9c0,3.2,7.8,3.5,7.9,3.5s7.9-0.3,7.9-3.5C29.9,55.4,29,54.5,28,54.5z"/>
	<path class="st0" d="M73.5,55.2c-0.3-0.4-0.9-0.7-1.5-0.7c-1,0-1.9,0.9-1.9,1.9c0,3.2,7.8,3.5,7.9,3.5s7.9-0.3,7.9-3.5
		c0-1-0.9-1.9-1.9-1.9c-0.6,0-1.1,0.3-1.5,0.7c-0.8,0.3-3.1,0.9-4.5,0.9S74.2,55.5,73.5,55.2z"/>
	<path class="st0" d="M63.9,69.2c-0.2-4.2-2.4-7.9-5.6-10.3c0,0,0,0-0.1,0c0,0-0.1-0.1-0.1-0.1c-0.2-0.2-0.4-0.3-0.6-0.4
		c-0.1-0.1-0.3-0.2-0.4-0.2c-0.2-0.1-0.4-0.2-0.6-0.4c-0.2-0.1-0.4-0.2-0.6-0.3c-0.2-0.1-0.4-0.2-0.6-0.3c-0.3-0.1-0.7-0.3-1.1-0.4
		c-0.1,0-0.3-0.1-0.4-0.1c-0.3-0.1-0.6-0.2-0.8-0.2c-0.1,0-0.3-0.1-0.4-0.1c-0.3-0.1-0.6-0.1-0.9-0.1c-0.1,0-0.3,0-0.4,0
		c-0.4,0-0.9-0.1-1.3-0.1s-0.9,0-1.3,0.1c-0.1,0-0.3,0-0.4,0c-0.3,0-0.6,0.1-0.9,0.1c-0.1,0-0.3,0.1-0.4,0.1
		c-0.3,0.1-0.6,0.1-0.8,0.2c-0.1,0-0.3,0.1-0.4,0.1c-0.4,0.1-0.7,0.2-1.1,0.4c-0.2,0.1-0.4,0.2-0.5,0.2c-0.2,0.1-0.4,0.2-0.6,0.3
		c-0.2,0.1-0.4,0.2-0.6,0.4c-0.1,0.1-0.3,0.2-0.4,0.2c-0.2,0.1-0.4,0.3-0.6,0.4c0,0-0.1,0.1-0.1,0.1c0,0,0,0-0.1,0.1
		c-3.2,2.4-5.3,6.1-5.6,10.3c0,0.1,0,0.3,0,0.4c0,0.1,0,0.2,0,0.2c0,0.1,0,0.1,0,0.2c0,7.7,6.2,13.9,13.9,13.9S63.9,77.7,63.9,70
		c0-0.1,0-0.1,0-0.2c0-0.1,0-0.2,0-0.2C63.9,69.4,63.9,69.3,63.9,69.2z M42.9,62.8l5.9,4.7c0.3,0.3,0.8,0.4,1.2,0.4s0.8-0.1,1.2-0.4
		l5.9-4.7c1.6,1.6,2.7,3.7,3,6.1c-2.9,1.4-6.4,2.2-10,2.2s-7.1-0.8-10-2.2C40.2,66.5,41.3,64.4,42.9,62.8z M50,80.1
		c-4.5,0-8.2-2.9-9.6-6.9c2.9,1.1,6.2,1.7,9.6,1.7c3.3,0,6.6-0.6,9.6-1.7C58.2,77.2,54.5,80.1,50,80.1z"/>
</g>
</svg>
